<svg xmlns="http://www.w3.org/2000/svg" width="29.426" height="29.429" viewBox="0 0 29.426 29.429"><path fill="none" d="M25.123 4.305c-5.74-5.74-15.079-5.74-20.819.002-5.739 5.739-5.739 15.077 0 20.816 5.74 5.74 15.079 5.74 20.818.002 5.74-5.741 5.74-15.079.001-20.82zM18.784 18.05a.53.53 0 0 1-.748.748l-3.369-3.37-3.37 3.37a.529.529 0 1 1-.747-.749l3.368-3.368-3.369-3.37a.529.529 0 0 1 .748-.748l3.37 3.369 3.369-3.369a.529.529 0 0 1 .748.748l-3.369 3.37 3.369 3.369z"/><path fill="#818386" d="M18.784 10.563a.529.529 0 0 0-.748 0l-3.369 3.369-3.37-3.369a.529.529 0 0 0-.748.748l3.369 3.37-3.368 3.368a.53.53 0 0 0 .747.749l3.37-3.37 3.369 3.37a.53.53 0 0 0 .748-.748l-3.369-3.369 3.369-3.37a.53.53 0 0 0 0-.748z"/></svg>